[h264 @ 0x55a0641ad0c0] Reinit context to 1920x1088, pix_fmt: yuv420p
Input #0, mov,mp4,m4a,3gp,3g2,mj2, from '/var/www/html/project/media/video/original/sinergie_di_soccorso_Bologna.mp4':
  Metadata:
    major_brand     : mp42
    minor_version   : 0
    compatible_brands: isommp42
    creation_time   : 2023-11-27T16:18:38.000000Z
    com.android.version: 14
  Duration: 00:02:29.27, start: 0.000000, bitrate: 13142 kb/s
    Stream #0:0(eng): Video: h264 (High), 1 reference frame (avc1 / 0x31637661), yuv420p(tv, bt709, left), 1920x1080 (1920x1088), 13010 kb/s, 30 fps, 30 tbr, 90k tbn, 180k tbc (default)
    Metadata:
      creation_time   : 2023-11-27T16:18:38.000000Z
      handler_name    : VideoHandle
    Stream #0:1(eng): Audio: aac (LC) (mp4a / 0x6134706D), 48000 Hz, stereo, fltp, 128 kb/s (default)
    Metadata:
      creation_time   : 2023-11-27T16:18:38.000000Z
      handler_name    : SoundHandle
Input #1, png_pipe, from '/var/www/html/project/static/images/templates/logo.png':
  Duration: N/A, bitrate: N/A
    Stream #1:0: Video: png, 1 reference frame, rgba(pc), 1920x1080 [SAR 2835:2835 DAR 16:9], 25 tbr, 25 tbn, 25 tbc
[h264 @ 0x55a0641b1e80] Reinit context to 1280x720, pix_fmt: yuv420p
Input #2, mov,mp4,m4a,3gp,3g2,mj2, from '/var/www/html/project/static/images/templates/Codino.mp4':
  Metadata:
    major_brand     : mp42
    minor_version   : 1
    compatible_brands: isommp41mp42
    creation_time   : 2021-07-11T07:02:58.000000Z
  Duration: 00:00:02.00, start: 0.000000, bitrate: 1007 kb/s
    Stream #2:0(ita): Audio: aac (LC) (mp4a / 0x6134706D), 44100 Hz, stereo, fltp, 102 kb/s (default)
    Metadata:
      creation_time   : 2021-07-11T07:02:58.000000Z
      handler_name    : Core Media Audio
    Stream #2:1(und): Video: h264 (High), 1 reference frame (avc1 / 0x31637661), yuv420p(tv, bt709, progressive, left), 1280x720 [SAR 1:1 DAR 16:9], 813 kb/s, 25 fps, 25 tbr, 25k tbn, 50k tbc (default)
    Metadata:
      creation_time   : 2021-07-11T07:02:58.000000Z
      handler_name    : Core Media Video
[Parsed_scale_0 @ 0x55a06420f380] w:1280 h:720 flags:'bilinear' interl:0
[Parsed_scale_2 @ 0x55a064240f40] w:1280 h:720 flags:'bilinear' interl:0
[Parsed_scale_4 @ 0x55a0642e6280] w:1280 h:720 flags:'bilinear' interl:0
Stream mapping:
  Stream #0:0 (h264) -> scale
  Stream #0:1 (aac) -> concat:in0:a0
  Stream #1:0 (png) -> scale
  Stream #2:0 (aac) -> concat:in1:a0
  Stream #2:1 (h264) -> scale
  concat:out:v0 -> Stream #0:0 (libx264)
  concat:out:a0 -> Stream #0:1 (aac)
Press [q] to stop, [?] for help
[h264 @ 0x55a064366680] Reinit context to 1920x1088, pix_fmt: yuv420p
[h264 @ 0x55a064523c00] Reinit context to 1280x720, pix_fmt: yuv420p
[Parsed_scale_0 @ 0x55a065c0c080] w:1280 h:720 flags:'bilinear' interl:0
[Parsed_scale_2 @ 0x55a06431ce80] w:1280 h:720 flags:'bilinear' interl:0
[Parsed_scale_4 @ 0x55a065c15840] w:1280 h:720 flags:'bilinear' interl:0
[graph 0 input from stream 0:0 @ 0x55a065c1a040] w:1920 h:1080 pixfmt:yuv420p tb:1/90000 fr:30/1 sar:0/1 sws_param:flags=2
[graph 0 input from stream 1:0 @ 0x55a065c1b0c0] w:1920 h:1080 pixfmt:rgba tb:1/25 fr:25/1 sar:2835/2835 sws_param:flags=2
[graph 0 input from stream 2:1 @ 0x55a065c1c140] w:1280 h:720 pixfmt:yuv420p tb:1/25000 fr:25/1 sar:1/1 sws_param:flags=2
[graph_0_in_0_1 @ 0x55a065c1d100] tb:1/48000 samplefmt:fltp samplerate:48000 chlayout:0x3
[graph_0_in_2_0 @ 0x55a065c1e240] tb:1/44100 samplefmt:fltp samplerate:44100 chlayout:0x3
[Parsed_concat_7 @ 0x55a065c18080] auto-inserting filter 'auto_resampler_0' between the filter 'graph_0_in_2_0' and the filter 'Parsed_concat_7'
[Parsed_scale_0 @ 0x55a065c0c080] w:1920 h:1080 fmt:yuv420p sar:0/1 -> w:1280 h:720 fmt:yuv420p sar:0/1 flags:0x2
[Parsed_setsar_1 @ 0x55a065c0bec0] w:1280 h:720 sar:0/1 dar:16/9 -> sar:1/1 dar:16/9
[Parsed_scale_2 @ 0x55a06431ce80] w:1920 h:1080 fmt:rgba sar:2835/2835 -> w:1280 h:720 fmt:yuva420p sar:1/1 flags:0x2
[Parsed_setsar_3 @ 0x55a065c14b00] w:1280 h:720 sar:1/1 dar:16/9 -> sar:1/1 dar:16/9
[Parsed_overlay_6 @ 0x55a065c16f80] main w:1280 h:720 fmt:yuv420p overlay w:1280 h:720 fmt:yuva420p
[Parsed_overlay_6 @ 0x55a065c16f80] [framesync @ 0x55a065c170e8] Selected 1/90000 time base
[Parsed_overlay_6 @ 0x55a065c16f80] [framesync @ 0x55a065c170e8] Sync level 2
[Parsed_scale_4 @ 0x55a065c15840] w:1280 h:720 fmt:yuv420p sar:1/1 -> w:1280 h:720 fmt:yuv420p sar:1/1 flags:0x2
[Parsed_setsar_5 @ 0x55a065c16300] w:1280 h:720 sar:1/1 dar:16/9 -> sar:1/1 dar:16/9
[auto_resampler_0 @ 0x55a065c25940] ch:2 chl:stereo fmt:fltp r:44100Hz -> ch:2 chl:stereo fmt:fltp r:48000Hz
[libx264 @ 0x55a064242540] using SAR=1/1
[libx264 @ 0x55a064242540] using cpu capabilities: MMX2 SSE2Fast SSSE3 SSE4.2 AVX FMA3 BMI2 AVX2
[libx264 @ 0x55a064242540] profile High, level 3.1
[libx264 @ 0x55a064242540] 264 - core 155 r2917 0a84d98 - H.264/MPEG-4 AVC codec - Copyleft 2003-2018 - http://www.videolan.org/x264.html - options: cabac=1 ref=1 deblock=1:0:0 analyse=0x3:0x113 me=hex subme=2 psy=1 psy_rd=1.00:0.00 mixed_ref=0 me_range=16 chroma_me=1 trellis=0 8x8dct=1 cqm=0 deadzone=21,11 fast_pskip=1 chroma_qp_offset=0 threads=22 lookahead_threads=5 sliced_threads=0 nr=0 decimate=1 interlaced=0 bluray_compat=0 constrained_intra=0 bframes=3 b_pyramid=2 b_adapt=1 b_bias=0 direct=1 weightb=1 open_gop=0 weightp=1 keyint=250 keyint_min=25 scenecut=40 intra_refresh=0 rc_lookahead=10 rc=crf mbtree=1 crf=18.0 qcomp=0.60 qpmin=0 qpmax=69 qpstep=4 ip_ratio=1.40 aq=1:1.00
Output #0, mp4, to '/var/www/html/project/media/video/watermarks/sinergie_di_soccorso_Bologna.mp4':
  Metadata:
    major_brand     : mp42
    minor_version   : 0
    compatible_brands: isommp42
    com.android.version: 14
    encoder         : Lavf58.29.100
    Stream #0:0: Video: h264 (libx264), 1 reference frame (avc1 / 0x31637661), yuv420p(progressive), 1280x720 [SAR 1:1 DAR 16:9], q=-1--1, 30 fps, 15360 tbn, 30 tbc (default)
    Metadata:
      encoder         : Lavc58.54.100 libx264
    Side data:
      cpb: bitrate max/min/avg: 0/0/0 buffer size: 0 vbv_delay: -1
    Stream #0:1: Audio: aac (LC) (mp4a / 0x6134706D), 48000 Hz, stereo, fltp, delay 1024, 128 kb/s (default)
    Metadata:
      encoder         : Lavc58.54.100 aac
[Parsed_overlay_6 @ 0x55a065c16f80] [framesync @ 0x55a065c170e8] Sync level 0
[Parsed_concat_7 @ 0x55a065c18080] EOF on in0:v0, 1 streams left in segment.
[Parsed_concat_7 @ 0x55a065c18080] EOF on in0:a0, 0 streams left in segment.
[Parsed_concat_7 @ 0x55a065c18080] Segment finished at pts=149266333
[Parsed_concat_7 @ 0x55a065c18080] EOF on in1:v0, 1 streams left in segment.
[Parsed_concat_7 @ 0x55a065c18080] EOF on in1:a0, 0 streams left in segment.
[Parsed_concat_7 @ 0x55a065c18080] Segment finished at pts=151285020
No more output streams to write to, finishing.
frame= 4528 fps= 73 q=-1.0 Lsize=  102941kB time=00:02:31.29 bitrate=5573.9kbits/s speed=2.43x    
[AVIOContext @ 0x55a0641ab440] Statistics: 0 seeks, 123 writeouts
video:100380kB audio:2397kB subtitle:0kB other streams:0kB global headers:0kB muxing overhead: 0.159025%
Input file #0 (/var/www/html/project/media/video/original/sinergie_di_soccorso_Bologna.mp4):
  Input stream #0:0 (video): 4478 packets read (242759730 bytes); 4478 frames decoded; 
  Input stream #0:1 (audio): 6996 packets read (2388237 bytes); 6996 frames decoded (7163904 samples); 
  Total: 11474 packets (245147967 bytes) demuxed
Input file #1 (/var/www/html/project/static/images/templates/logo.png):
  Input stream #1:0 (video): 1 packets read (111578 bytes); 1 frames decoded; 
  Total: 1 packets (111578 bytes) demuxed
Input file #2 (/var/www/html/project/static/images/templates/Codino.mp4):
  Input stream #2:0 (audio): 89 packets read (26579 bytes); 87 frames decoded (89024 samples); 
  Input stream #2:1 (video): 50 packets read (203365 bytes); 50 frames decoded; 
  Total: 139 packets (229944 bytes) demuxed
Output file #0 (/var/www/html/project/media/video/watermarks/sinergie_di_soccorso_Bologna.mp4):
  Output stream #0:0 (video): 4528 frames encoded; 4528 packets muxed (102789588 bytes); 
  Output stream #0:1 (audio): 7092 frames encoded (7261793 samples); 7093 packets muxed (2454638 bytes); 
  Total: 11621 packets (105244226 bytes) muxed
[AVIOContext @ 0x55a064242200] Statistics: 2 seeks, 405 writeouts
[libx264 @ 0x55a064242540] frame I:28    Avg QP:16.07  size:178339
[libx264 @ 0x55a064242540] frame P:1411  Avg QP:19.84  size: 48297
[libx264 @ 0x55a064242540] frame B:3089  Avg QP:23.30  size:  9598
[libx264 @ 0x55a064242540] consecutive B-frames:  8.1%  2.2%  1.9% 87.8%
[libx264 @ 0x55a064242540] mb I  I16..4:  7.9% 11.2% 80.9%
[libx264 @ 0x55a064242540] mb P  I16..4:  3.0%  6.1%  3.2%  P16..4: 44.1% 17.1% 15.2%  0.0%  0.0%    skip:11.4%
[libx264 @ 0x55a064242540] mb B  I16..4:  0.6%  0.7%  0.2%  B16..8: 18.3%  9.1%  2.4%  direct:10.6%  skip:58.0%  L0:28.1% L1:38.8% BI:33.2%
[libx264 @ 0x55a064242540] 8x8 transform intra:44.3% inter:26.9%
[libx264 @ 0x55a064242540] coded y,uvDC,uvAC intra: 64.8% 62.0% 27.4% inter: 21.7% 13.4% 3.1%
[libx264 @ 0x55a064242540] i16 v,h,dc,p: 35% 28% 27%  9%
[libx264 @ 0x55a064242540] i8 v,h,dc,ddl,ddr,vr,hd,vl,hu: 20% 23% 21%  5%  6%  6%  6%  6%  7%
[libx264 @ 0x55a064242540] i4 v,h,dc,ddl,ddr,vr,hd,vl,hu: 21% 20% 12%  7%  9%  8%  8%  7%  8%
[libx264 @ 0x55a064242540] i8c dc,h,v,p: 52% 23% 20%  5%
[libx264 @ 0x55a064242540] Weighted P-Frames: Y:11.9% UV:2.0%
[libx264 @ 0x55a064242540] kb/s:5436.17
[aac @ 0x55a064365d00] Qavg: 614.899
[AVIOContext @ 0x55a0641b43c0] Statistics: 392130061 bytes read, 8929 seeks
[AVIOContext @ 0x55a0641f3c00] Statistics: 111578 bytes read, 0 seeks
[AVIOContext @ 0x55a0641f4100] Statistics: 1530915 bytes read, 42 seeks
